<?xml version="1.0" encoding="UTF-8" standalone="no"?>
<!-- Created with Inkscape (http://www.inkscape.org/) -->

<svg
   width="504.12042mm"
   height="318.76346mm"
   viewBox="0 0 504.12043 318.76345"
   version="1.1"
   id="svg5"
   xmlns="http://www.w3.org/2000/svg"
   xmlns:svg="http://www.w3.org/2000/svg">
  <defs
     id="defs2" />
  <g
     id="layer1"
     transform="matrix(3,0,0,3,-52.852677,-305.0401)">
    <circle
       id="path42"
       style="fill:#000000;stroke:#000000;stroke-width:0.264583"
       cx="40.478451"
       cy="106.74924"
       r="0.045315132" />
    <circle
       id="path44"
       style="fill:#000000;stroke:#000000;stroke-width:0.264583"
       cx="40.478451"
       cy="106.74924"
       r="0.045315132" />
    <circle
       id="path46"
       style="fill:#000000;stroke:#000000;stroke-width:0.264583"
       cx="27.421688"
       cy="111.72634"
       r="0.045315132" />
    <circle
       id="path48"
       style="fill:#000000;stroke:#000000;stroke-width:0.264583"
       cx="27.421688"
       cy="111.72634"
       r="0.045315132" />
    <circle
       id="path50"
       style="fill:#000000;stroke:#000000;stroke-width:0.264583"
       cx="27.421688"
       cy="111.72634"
       r="0.045315132" />
    <circle
       id="path52"
       style="fill:#000000;stroke:#000000;stroke-width:0.264583"
       cx="27.421688"
       cy="111.72634"
       r="0.045315132" />
    <path
       style="fill:none;stroke:#ffffff;stroke-width:3.30623;stroke-linecap:round;stroke-linejoin:round;stroke-miterlimit:4;stroke-dasharray:none;stroke-opacity:1;paint-order:markers stroke fill"
       d="m 19.270674,135.3665 c 0,0 34.842125,-46.14964 53.961966,9.9666 19.119842,56.11625 -37.388585,45.81965 -44.053169,23.95281 -6.664587,-21.86684 89.683029,-7.50126 105.374379,-28.08566 15.69134,-20.58439 -52.057631,-68.32637 -46.923016,3.73893 5.134613,72.0653 78.166956,22.83868 93.149856,1.32256 14.9829,-21.51612 -27.48523,-111.925947 -34.80643,60.01966"
       id="path177" />
  </g>
</svg>
